<svg xmlns="http://www.w3.org/2000/svg" viewBox="0 0 100 100"><defs><style>.cls-1{fill:#666;}.cls-2{fill:none;}</style></defs><g id="Layer_2" data-name="Layer 2"><g id="Layer_1-2" data-name="Layer 1"><path class="cls-1" d="M69.93,3.81H30.07A26.29,26.29,0,0,0,3.81,30.07V69.93A26.29,26.29,0,0,0,30.07,96.19H69.93A26.29,26.29,0,0,0,96.19,69.93V30.07A26.29,26.29,0,0,0,69.93,3.81Zm19.5,66.82a19.06,19.06,0,0,1-19,19H29.6a19.06,19.06,0,0,1-19-19V29.84a19.06,19.06,0,0,1,19-19H70.4a19.06,19.06,0,0,1,19,19Z"/><path class="cls-1" d="M50,26.73a23.51,23.51,0,1,0,23.5,23.5A23.52,23.52,0,0,0,50,26.73Zm0,40.33A16.83,16.83,0,1,1,66.83,50.23,16.85,16.85,0,0,1,50,67.06Z"/><path class="cls-1" d="M75.29,20.1A4.74,4.74,0,1,0,80,24.83,4.74,4.74,0,0,0,75.29,20.1Z"/><rect class="cls-2" width="100" height="100"/></g></g></svg>